<svg xmlns="http://www.w3.org/2000/svg" viewBox="0 0 500 500"><g id="freepik--background-complete--inject-72"><rect y="382.4" width="500" height="0.25" style="fill:#ebebeb"></rect><rect x="416.78" y="398.49" width="33.12" height="0.25" style="fill:#ebebeb"></rect><rect x="322.53" y="401.21" width="8.69" height="0.25" style="fill:#ebebeb"></rect><rect x="396.59" y="389.21" width="19.19" height="0.25" style="fill:#ebebeb"></rect><rect x="52.46" y="390.89" width="43.19" height="0.25" style="fill:#ebebeb"></rect><rect x="104.56" y="390.89" width="6.33" height="0.25" style="fill:#ebebeb"></rect><rect x="131.47" y="395.11" width="93.68" height="0.25" style="fill:#ebebeb"></rect><path d="M237,337.8H43.91a5.71,5.71,0,0,1-5.7-5.71V60.66A5.71,5.71,0,0,1,43.91,55H237a5.71,5.71,0,0,1,5.71,5.71V332.09A5.71,5.71,0,0,1,237,337.8ZM43.91,55.2a5.46,5.46,0,0,0-5.45,5.46V332.09a5.46,5.46,0,0,0,5.45,5.46H237a5.47,5.47,0,0,0,5.46-5.46V60.66A5.47,5.47,0,0,0,237,55.2Z" style="fill:#ebebeb"></path><path d="M453.31,337.8H260.21a5.72,5.72,0,0,1-5.71-5.71V60.66A5.72,5.72,0,0,1,260.21,55h193.1A5.71,5.71,0,0,1,459,60.66V332.09A5.71,5.71,0,0,1,453.31,337.8ZM260.21,55.2a5.47,5.47,0,0,0-5.46,5.46V332.09a5.47,5.47,0,0,0,5.46,5.46h193.1a5.47,5.47,0,0,0,5.46-5.46V60.66a5.47,5.47,0,0,0-5.46-5.46Z" style="fill:#ebebeb"></path><polygon points="78.08 141.73 127.49 112.98 165.57 112.98 215.81 140.37 215.81 326.69 78.08 326.69 78.08 141.73" style="fill:#e6e6e6"></polygon><path d="M217.22,326.69H78.08v-185l1.41-1.36A97.91,97.91,0,0,1,147.65,113h0a98,98,0,0,1,68.16,27.39l1.41,1.36ZM87.31,317.46H208V145.69a89.27,89.27,0,0,0-120.68,0Z" style="fill:#fafafa"></path><polygon points="144.19 318.57 151.11 318.57 151.11 256.74 209.74 256.74 209.74 249.82 151.11 249.82 151.11 186.57 209.74 186.57 209.74 179.65 151.11 179.65 151.11 121.02 144.19 121.02 144.19 179.65 85.56 179.65 85.56 186.57 144.19 186.57 144.19 249.82 85.56 249.82 85.56 256.74 144.19 256.74 144.19 318.57" style="fill:#f5f5f5"></polygon><path d="M221.84,331.31H73.46V139.85l1.35-1.35a103.14,103.14,0,0,1,145.68,0l1.35,1.35ZM82.69,322.08H212.61V143.7a93.89,93.89,0,0,0-129.92,0Z" style="fill:#f5f5f5"></path><path d="M394.91,133.14s1.34-8.86-5.12-14.54-5.9-9.07-4.05-9.51,3.55,5.24,6.39,6.81c0,0,.09-8.1-2.79-11.08S384.93,94.15,387.68,94s3,4.57,3.6,7.9,3.63,8,3.63,8,.6-7.25,2.46-10.23-3.11-9.8-1.19-12.79,5.33,2.7,5,9.1-4.54,13.21-3.55,19.89c0,0,1.88-4.69,3.57-5.12s3.39-3.52,4.53-4.67,2.56,2.83,0,6.52-9.09,13.58-8.1,21.56Z" style="fill:#e6e6e6"></path><path d="M391,129.11l-2.11,13.28a6.75,6.75,0,0,0,6.67,7.82h2.26a6.76,6.76,0,0,0,6.67-7.82l-2.12-13.28Z" style="fill:#f5f5f5"></path><rect x="273.43" y="145.31" width="149.63" height="7.69" style="fill:#f0f0f0"></rect><rect x="280.32" y="116.97" width="6.59" height="28.34" style="fill:#f5f5f5"></rect><rect x="312.19" y="116.97" width="6.59" height="28.34" style="fill:#f5f5f5"></rect><rect x="350.83" y="116.62" width="6.59" height="28.34" transform="translate(-17.07 62.05) rotate(-9.78)" style="fill:#f5f5f5"></rect><rect x="288.49" y="120.7" width="6.59" height="24.6" style="fill:#f5f5f5"></rect><rect x="303.64" y="120.7" width="6.59" height="24.6" style="fill:#f5f5f5"></rect><rect x="341.88" y="120.7" width="6.59" height="24.6" style="fill:#f5f5f5"></rect><rect x="323.6" y="120.28" width="6.59" height="24.6" transform="translate(-20.98 74.06) rotate(-12.53)" style="fill:#f5f5f5"></rect><rect x="297.48" y="115.56" width="3.3" height="29.75" style="fill:#f5f5f5"></rect><rect x="336.69" y="115.56" width="3.3" height="29.75" style="fill:#f5f5f5"></rect><rect x="273.43" y="202.7" width="149.63" height="7.69" transform="translate(696.49 413.09) rotate(180)" style="fill:#f0f0f0"></rect><rect x="409.58" y="174.36" width="6.59" height="28.34" transform="translate(825.75 377.06) rotate(180)" style="fill:#f5f5f5"></rect><rect x="377.71" y="174.36" width="6.59" height="28.34" transform="translate(762.01 377.06) rotate(180)" style="fill:#f5f5f5"></rect><rect x="339.07" y="174.01" width="6.59" height="28.34" transform="translate(647.79 431.78) rotate(-170.22)" style="fill:#f5f5f5"></rect><rect x="401.41" y="178.1" width="6.59" height="24.6" transform="translate(809.42 380.8) rotate(180)" style="fill:#f5f5f5"></rect><rect x="386.26" y="178.1" width="6.59" height="24.6" transform="translate(779.12 380.8) rotate(180)" style="fill:#f5f5f5"></rect><rect x="348.02" y="178.1" width="6.59" height="24.6" transform="translate(702.63 380.8) rotate(180)" style="fill:#f5f5f5"></rect><rect x="366.3" y="177.68" width="6.59" height="24.6" transform="translate(689.19 455.6) rotate(-167.47)" style="fill:#f5f5f5"></rect><rect x="395.71" y="172.96" width="3.3" height="29.75" transform="translate(794.72 375.66) rotate(180)" style="fill:#f5f5f5"></rect><rect x="356.5" y="172.96" width="3.3" height="29.75" transform="translate(716.3 375.66) rotate(180)" style="fill:#f5f5f5"></rect><rect x="287.79" y="180.27" width="32.12" height="22.18" transform="translate(607.7 382.72) rotate(180)" style="fill:#f5f5f5"></rect></g><g id="freepik--Shadow--inject-72"><ellipse id="freepik--path--inject-72" cx="250" cy="416.24" rx="193.89" ry="11.32" style="fill:#f5f5f5"></ellipse></g><g id="freepik--Shapes--inject-72"><path d="M109.24,291.51c11.59-3.51,25.89-.69,33.58,9.2,7.5,9.3,8.66,21.47,7.62,32.7-1.05,10.13-.93,20.83,3.73,30,4.62,9.47,15.12,14.94,25.64,13.93a27.23,27.23,0,0,1-28-12.56c-5.84-9.43-7-20.94-6.81-31.75.23-9.46-1.41-20.32-8-27.3-6.27-6.83-16.31-7.86-24.74-4.73-6.53,2.08-9.58-7.46-3-9.54Z" style="fill:#161C24"></path><path d="M241.59,329.32c2.55,2.56,5.58,1,6.09-2.22.32-2.39-1.34-4.05-3.61-4.93-4-1.47-7.94,1.57-10.24,5-4.48,6.95-4.49,16.94-10.68,23.07a20,20,0,0,1-14.22,5.55,19.06,19.06,0,0,0,9.4-3.36c9.34-6,7.44-18.14,12.26-27.16,2.79-5.26,8.81-9.77,15.09-7.87A10.09,10.09,0,0,1,250.85,334c-3.53,4.23-9.87,3.94-13.72.69a3.5,3.5,0,1,1,4.46-5.4Z" style="fill:#161C24"></path><path d="M116.24,150c4.72,10.21-7.08,19-15.59,11.78-9.4-7.17-4.49-20.84,4.52-25.72,8.8-5.07,20.67-1.17,26.38,6.77,6.9,10.15,7.17,23,9.72,34.59,2.18,11.57,5.72,23.07,12.47,32.83a69.49,69.49,0,0,1-4.89-7.43c-4.4-7.78-7.19-16.37-9.29-25-1.44-5.77-2.58-11.6-4.06-17.27s-3.31-11.29-6.73-15.57a18.6,18.6,0,0,0-14-6.8,13.8,13.8,0,0,0-12.25,7.55c-1.7,3.32-2.23,7.52.49,10.13,1.64,1.85,4.69,3.22,6.43,1.39a3.33,3.33,0,0,0,.48-4.11,3.5,3.5,0,1,1,6.27-3.12Z" style="fill:#161C24"></path><path d="M256.74,198.87c-5.69-10.85-13.24-1.47-15.42,6.38-2.2,6.9-1.61,14.72-3.67,21.77-2,7.28-5.49,15.29-12.66,18.73a12.42,12.42,0,0,1-11.05-.38,11.77,11.77,0,0,0,10.47-.73c6.17-3.88,8.52-11.51,9.57-18.37a61.36,61.36,0,0,0,.52-10.76c-.25-8,.57-16.34,5.38-23.4,7.08-10.14,19-8.25,25.36,1.49,3.76,5.88-4.93,11.25-8.5,5.27Z" style="fill:#161C24"></path><path d="M118,342.81c4.58,6.72-4.34,13.63-10.09,8.51-8.06-7.15.21-18.55,9.18-19.13,6.7-.65,13.28,3.35,16.42,9.12,2.35,4.34,2.27,9.23,3.77,13.76a9,9,0,0,0,2.52,3.9c-2.58-2-3.4-5.35-4.13-8.37a30.2,30.2,0,0,0-3.06-8.78c-3.07-5.05-9.37-8.51-15.26-7.61-5.29.67-11,6.12-9.51,11.55.9,3.34,5.51,5.7,7.39,1.93a2.45,2.45,0,0,0-.46-2.52,2,2,0,1,1,3.23-2.36Z" style="fill:#161C24"></path><path d="M82,259.39c0,.19.05.33.05.35s-.05,0,0,0a.66.66,0,0,0,.36.07c4.79-.84,4.49-6.9.16-8.33-2.71-.82-5.76.71-7.59,2.84-4.06,4.73-4.33,12.47-1,17.8,5.33,8.67,16.71,11.68,26.38,9.52a27.67,27.67,0,0,1-19.88-1.9,19.87,19.87,0,0,1-10-11.6c-1.38-5.2-.83-11,2.63-15.42,4.66-6.24,14.64-6,16.24,2.57a7.66,7.66,0,0,1-4.84,7.88c-2.73,1.24-6.2-.06-6.43-3.49a2,2,0,1,1,4-.3Z" style="fill:#161C24"></path><path d="M147.17,104.1c.53-6.87-8.17-9.24-13-5.46-8,6-7.77,20.16-4.53,28.83,3.48,10.08,11.83,18.86,11.61,30.05-.32-11.26-9-19.48-13-29.52-4-9.47-4.66-24.63,4.14-31.76,7.09-5.77,19-2,18.81,8a2,2,0,1,1-4-.18Z" style="fill:#161C24"></path><path d="M83.56,223.73c3.79-2.77,9.45-2.47,12.58,1,3,3.2,2.31,8,1.53,11.67-.44,2.44-.72,5,.34,7.34-2.75-4.31-.17-10.2-1.82-14.62-1.38-4.22-7-5.28-10-2.38a2,2,0,1,1-2.6-3Z" style="fill:#161C24"></path><path d="M230.11,146.82c4.62-.83,9.59,1.89,10.89,6.41,1.25,4.16-1.41,8.22-3.71,11.17-1.45,2-2.82,4.18-2.88,6.76-.6-5.08,4.28-9.26,4.72-14,.59-4.4-4-7.78-8-6.51a2,2,0,1,1-1-3.87Z" style="fill:#161C24"></path><path d="M317.4,146.72c1.18.34,3-1,3.54-2.17,1.52-3.58-1.66-7.35-5.26-8.05C306,134.6,300.09,144,301,152.75c.63,7,4.26,13.05,7.27,19.33,2,4.24,4,8.73,4.32,13.58.73,10.8-5.77,18.73-16.92,18.26,10.9,0,17-7.63,15.93-18.18C310.19,173.89,300.17,165,298.79,153c-1.51-10.69,5.92-21.6,17.56-19.65,4,.65,7.87,4,8.49,8.27,1,4.77-3.32,10-8.46,9a2,2,0,1,1,1-3.87Z" style="fill:#161C24"></path><path d="M203.75,106.41c-2.64-1.42-5.72-1.91-7.83.61a11.42,11.42,0,0,0-2.18,9.45c-1.74-4.13-1.17-9.88,2.53-12.89,2.51-2,6.19-1.76,9-.88a2,2,0,1,1-1.49,3.71Z" style="fill:#161C24"></path><path d="M182.9,207.89c-1.36-1.85-3.18-1.37-3.9.65-.9,4,4.76,6.07,7.51,8,4.85,2.82,6.13,6.65,3.13,11.53a11.46,11.46,0,0,0,1.12-4.2c.2-8.07-15.56-6.53-14.51-15.93.76-4.78,6.19-6.34,9.59-2.8a2,2,0,1,1-2.94,2.72Z" style="fill:#161C24"></path><path d="M223.23,305.89a7.69,7.69,0,0,1,8.14,7.47c.33,3.66-1.94,6.71-3.24,9.79a28.08,28.08,0,0,0-2.1,6.15,28.44,28.44,0,0,1,1.16-6.5c.73-3,2.38-6,1.71-9-.55-2.55-2.6-4.61-5.27-3.92a2,2,0,1,1-.4-4Z" style="fill:#161C24"></path><path d="M284.38,110.53c15.4,10.58,1.33,33.82,11.32,47a15.73,15.73,0,0,1-3.22-5.19c-3.58-9.51-1.26-20.35-3.92-30a13.13,13.13,0,0,0-6.24-8.43,2,2,0,1,1,2.06-3.42Z" style="fill:#161C24"></path><path d="M181.6,93.12c-10.84-.52-9.61,9.81-2.24,14.38a36.13,36.13,0,0,1,8.33,7c2.72,3.08,4.22,7.74,2.15,11.54,3.1-7.93-5.39-13.69-11.42-16.92a16.41,16.41,0,0,1-6-5.48c-2.52-3.87-2.23-9.36,1.73-12.29a13.48,13.48,0,0,1,7.62-2.23,2,2,0,1,1-.14,4Z" style="fill:#161C24"></path></g><g id="freepik--Chest--inject-72"><path d="M170.94,114.78,150.33,118a6.34,6.34,0,0,0-5.3,7.22l2,12.92,12.52-1.93,8.09-1.25L180.15,133l-2-12.91A6.32,6.32,0,0,0,170.94,114.78Z" style="fill:#161C24"></path><path d="M159.54,136.16,147,138.09l-2-12.92a6.34,6.34,0,0,1,5.3-7.22h0a6.33,6.33,0,0,1,7.22,5.29Z" style="isolation:isolate;opacity:0.2"></path><path d="M147.78,137.05l-1.85-12a5.43,5.43,0,0,1,10.73-1.65l1.85,12Z" style="isolation:isolate;opacity:0.2"></path><rect x="159.43" y="123.58" width="19.04" height="10.05" transform="translate(-17.61 27.22) rotate(-8.76)" style="isolation:isolate;opacity:0.2"></rect><path d="M177.26,120.21l.23,1.45-18.82,2.9-.22-1.45a6.34,6.34,0,0,0-7.23-5.3l18.82-2.9A6.33,6.33,0,0,1,177.26,120.21Z" style="isolation:isolate;opacity:0.2"></path><rect x="144.41" y="123.19" width="34.61" height="1.43" rx="0.35" transform="translate(-16.98 26.06) rotate(-8.76)" style="fill:#161C24"></rect><rect x="144.41" y="123.19" width="34.61" height="1.44" rx="0.34" transform="translate(-16.99 26.08) rotate(-8.76)" style="fill:#fff;isolation:isolate;opacity:0.2"></rect><rect x="144.53" y="124.78" width="13.76" height="1.44" rx="0.34" transform="matrix(0.99, -0.15, 0.15, 0.99, -17.35, 24.53)" style="isolation:isolate;opacity:0.2"></rect><path d="M169.8,127.53l-.15,0a1.49,1.49,0,0,1-.45-2.94h.15a1.5,1.5,0,0,0,.45,2.91Z" style="fill:#fff;isolation:isolate;opacity:0.2"></path><path d="M171.07,125.84a1.37,1.37,0,1,1-1.58-1.25A1.43,1.43,0,0,1,171.07,125.84Z" style="fill:#fff;isolation:isolate;opacity:0.4"></path><path d="M170,125.59a.34.34,0,1,0-.39.38l.06.86.38-.06-.21-.84A.33.33,0,0,0,170,125.59Z" style="isolation:isolate;opacity:0.2"></path></g><g id="freepik--Car--inject-72"><path d="M193.5,311.57l-1.47.85a3.26,3.26,0,1,0,3.26,5.65l1.47-.84a3.27,3.27,0,1,0-3.26-5.66Z" style="fill:#263238"></path><path d="M196.49,313.62a3.26,3.26,0,1,1-4.46-1.2A3.26,3.26,0,0,1,196.49,313.62Z" style="opacity:0.2"></path><path d="M195.3,314.3a1.89,1.89,0,1,1-2.59-.7A1.9,1.9,0,0,1,195.3,314.3Z" style="fill:#263238"></path><path d="M207.66,303.42l-1.47.85a3.26,3.26,0,0,0,3.25,5.65l1.47-.84a3.26,3.26,0,0,0-3.25-5.66Z" style="fill:#263238"></path><path d="M210.64,305.47a3.26,3.26,0,1,1-4.45-1.2A3.25,3.25,0,0,1,210.64,305.47Z" style="opacity:0.2"></path><path d="M209.46,306.15a1.9,1.9,0,1,1-2.59-.7A1.9,1.9,0,0,1,209.46,306.15Z" style="fill:#263238"></path><polygon points="212.24 303.13 211.15 304.63 182.94 320.88 180.43 316.52 206.72 301.39 212.24 303.13" style="fill:#263238"></polygon><path d="M200.58,307.5l-1.47.84a3.27,3.27,0,0,0,3.26,5.66l1.47-.85a3.26,3.26,0,0,0-3.26-5.65Z" style="fill:#263238"></path><path d="M200.58,307.5l-1.47.84a3.27,3.27,0,0,0,3.26,5.66l1.47-.85a3.26,3.26,0,0,0-3.26-5.65Z" style="fill:#fff;opacity:0.1"></path><path d="M203.56,309.54a3.26,3.26,0,1,1-4.45-1.2A3.27,3.27,0,0,1,203.56,309.54Z" style="fill:#fff;opacity:0.1"></path><path d="M202.38,310.22a1.89,1.89,0,1,1-2.59-.69A1.9,1.9,0,0,1,202.38,310.22Z" style="fill:#161C24"></path><path d="M186.42,315.65l-1.47.84a3.27,3.27,0,0,0,3.26,5.66l1.47-.85a3.26,3.26,0,1,0-3.26-5.65Z" style="fill:#263238"></path><path d="M186.42,315.65l-1.47.84a3.27,3.27,0,0,0,3.26,5.66l1.47-.85a3.26,3.26,0,1,0-3.26-5.65Z" style="fill:#fff;opacity:0.1"></path><path d="M189.41,317.69a3.27,3.27,0,1,1-4.46-1.2A3.27,3.27,0,0,1,189.41,317.69Z" style="fill:#fff;opacity:0.1"></path><path d="M188.22,318.37a1.9,1.9,0,1,1-2.58-.69A1.9,1.9,0,0,1,188.22,318.37Z" style="fill:#161C24"></path><polygon points="180.76 308.4 178.59 305.92 180.88 304.6 184.44 305.56 184.75 306.1 180.76 308.4" style="fill:#161C24"></polygon><polygon points="180.76 308.4 178.59 305.92 180.88 304.6 184.44 305.56 184.75 306.1 180.76 308.4" style="opacity:0.30000000000000004"></polygon><rect x="172.84" y="308.77" width="10.66" height="0.75" transform="translate(-130.48 130.13) rotate(-29.93)" style="fill:#161C24"></rect><rect x="172.84" y="308.77" width="10.66" height="0.75" transform="translate(-130.48 130.13) rotate(-29.93)" style="opacity:0.30000000000000004"></rect><path d="M211.68,301.09l1.24,2.16-9.27,5.33a3.2,3.2,0,1,0-5.54,3.19l-8.62,5a3.19,3.19,0,1,0-5.53,3.18l-1.8,1-1.76-3-2.35-8.76,10.55-6.08a10.09,10.09,0,0,1,2.87-1.16c2.63-.78,7.34-1.57,15-1.2C208.07,300.78,209.82,300.9,211.68,301.09Z" style="fill:#161C24"></path><path d="M199.42,305.59a4.71,4.71,0,0,0-1.73,6.43l.42-.25a3.2,3.2,0,1,1,5.54-3.19l2.18-1.25A4.7,4.7,0,0,0,199.42,305.59Z" style="opacity:0.2"></path><path d="M185.26,313.74a4.71,4.71,0,0,0-1.73,6.43l.43-.25a3.19,3.19,0,1,1,5.53-3.18l2.18-1.26A4.7,4.7,0,0,0,185.26,313.74Z" style="opacity:0.2"></path><path d="M177.1,312.74l7.33-4.22a7.76,7.76,0,0,1,4-1l9.64,0-.7,1.87-7.72.23a9.93,9.93,0,0,0-4.66,1.33l-6,3.47A1.64,1.64,0,0,1,177.1,312.74Z" style="fill:#161C24"></path><path d="M177.1,312.74l7.33-4.22a7.76,7.76,0,0,1,4-1l9.64,0-.7,1.87-7.72.23a9.93,9.93,0,0,0-4.66,1.33l-6,3.47A1.64,1.64,0,0,1,177.1,312.74Z" style="opacity:0.2"></path><polygon points="213.13 300.27 204.06 305.49 205.3 307.64 213.7 302.8 213.78 301.41 213.13 300.27" style="fill:#161C24"></polygon><polygon points="213.13 300.27 204.06 305.49 205.3 307.64 213.7 302.8 213.78 301.41 213.13 300.27" style="opacity:0.2"></polygon><rect x="207.95" y="303.27" width="1.37" height="0.62" transform="translate(-123.65 144.59) rotate(-29.93)" style="fill:#fff;opacity:0.4"></rect><rect x="211.99" y="300.94" width="1.37" height="0.62" transform="translate(-121.95 146.3) rotate(-29.93)" style="fill:#fff;opacity:0.4"></rect><polygon points="173.69 312.47 171.51 309.99 173.8 308.68 177.37 309.64 177.67 310.17 173.69 312.47" style="fill:#161C24"></polygon><path d="M213.12,300.26l.67,1.15-.09,1.39-7.43,4.28.4-1.52-.68-1.19-1.66.95a54.64,54.64,0,0,0-11.91-1c-7.75,0-14.37,4.87-14.37,4.87l.06.45-.57.33.14.24-4,2.3L171.51,310l2.29-1.32,3,.81,3.26-1.87-1.48-1.69,2.29-1.32,3.44.94,4.28-2.47a10.09,10.09,0,0,1,2.87-1.16c2.63-.78,7.34-1.57,15-1.2,1.59.07,3.34.19,5.2.38Z" style="opacity:0.1"></path><path d="M206.48,300.71l-1,.59-2-.09-1.6.92.53.94-2.57,1.48c-9.28-1.27-15.3,1.36-15.3,1.36l6.95-4C194.1,301.13,198.81,300.34,206.48,300.71Z" style="fill:#fff;opacity:0.4"></path></g><g id="freepik--Bird--inject-72"><path d="M213.88,272.83s1.38-4.09,2.59-4.68,8.89-1.42,8.89-1.42.13,1-1.32,1.24l1.47.29s-.07.93-1.65,1c0,0,1,.79-.6,2.4S213.88,272.83,213.88,272.83Z" style="fill:#161C24"></path><path d="M213.88,272.83s1.38-4.09,2.59-4.68,8.89-1.42,8.89-1.42.13,1-1.32,1.24l1.47.29s-.07.93-1.65,1c0,0,1,.79-.6,2.4S213.88,272.83,213.88,272.83Z" style="fill:#fff;isolation:isolate;opacity:0.4"></path><path d="M209.36,269.76c.95-2.29,3.83-1.12,6.53,1.86,1.11,1.23,4.5-.23,6.84-.5,3.65-.41,8.91,1.47,14.41,3,0,0,.3,1.07-1.72.9l2.14,1.57s-.33,1.15-2.89.23c0,0,.4,1-.81,2.27-2.11,2.23-7.44.45-7.44.45s2.27,1.64,8.89,3.37a11.5,11.5,0,0,1-8.1.39l-2.8-1.6a12.2,12.2,0,0,1-7.6-2c-3.55-2.48-5-6.22-5.94-7.05S209.06,270.49,209.36,269.76Z" style="fill:#161C24"></path><path d="M235.31,283a11.5,11.5,0,0,1-8.1.39l-2.8-1.6a12.11,12.11,0,0,1-7.6-2,12.54,12.54,0,0,1-1.36-1.1c-2.58-2.37-3.77-5.24-4.58-5.95s-1.81-2.19-1.51-2.92c.95-2.29,3.83-1.11,6.53,1.86,1.11,1.23,4.5-.23,6.84-.5,3.66-.41,8.91,1.47,14.41,3,0,0,.3,1.07-1.72.9l2.14,1.57s-.33,1.15-2.89.23c0,0,.4,1-.81,2.27a4.64,4.64,0,0,1-3.53,1.11,14.58,14.58,0,0,1-3.91-.66S228.69,281.22,235.31,283Z" style="fill:#fff;isolation:isolate;opacity:0.6000000000000001"></path><path d="M209.7,269.18a5.82,5.82,0,0,0-1.83,0,7,7,0,0,0,1.55,1.54l.37-.65Z" style="fill:#161C24"></path><path d="M210.94,269.61c0,.11-.13.17-.19.14s-.08-.13,0-.23.13-.17.19-.14S211,269.51,210.94,269.61Z" style="fill:#263238"></path><path d="M234.67,276.86s.4,1-.81,2.27a4.64,4.64,0,0,1-3.53,1.11l-3.91-.66s-6.19-1.11-8.38-4.35c0,0,3.92-.76,5.52-1.81s11.38,1.91,13.58.74c0,0,.3,1.07-1.72.9l2.14,1.57S237.23,277.78,234.67,276.86Z" style="isolation:isolate;opacity:0.2"></path><path d="M235.31,283a11.5,11.5,0,0,1-8.1.39l-2.8-1.6a12.11,12.11,0,0,1-7.6-2,12.54,12.54,0,0,1-1.36-1.1,15.64,15.64,0,0,0,5.31,2.09,11.52,11.52,0,0,0,5.59-.39S232.54,283.26,235.31,283Z" style="isolation:isolate;opacity:0.2"></path></g><g id="freepik--Heart--inject-72"><path d="M302.08,188.49c1.5-6.3-4.58-9.39-10-8.73.67-5.4-2.42-11.49-8.72-10-10.63,2.52-8.38,17-6.83,23.28.17.72.31,1.32.44,1.81.49.13,1.08.27,1.8.44C285.11,196.85,299.54,199.12,302.08,188.49Z" style="fill:#161C24"></path><path d="M302.08,188.49c1.5-6.3-4.58-9.39-10-8.73.67-5.4-2.42-11.49-8.72-10-10.63,2.52-8.38,17-6.83,23.28.17.72.31,1.32.44,1.81.49.13,1.08.27,1.8.44C285.11,196.85,299.54,199.12,302.08,188.49Z" style="fill:#fafafa;opacity:0.5"></path><path d="M288.51,172.16c-1.63-1.49-4-1.6-5.19-.25s-.9,3.65.73,5.14,3.95,1.6,5.18.25S290.14,173.64,288.51,172.16Z" style="fill:#fafafa;opacity:0.2"></path><path d="M281.75,176a1.24,1.24,0,1,0-1.1,1.56A1.37,1.37,0,0,0,281.75,176Z" style="fill:#fafafa;opacity:0.2"></path></g><g id="freepik--Clouds--inject-72"><path d="M127.58,245a3.74,3.74,0,0,1,3.75-3.74,3.47,3.47,0,0,1,1.07.16,8.77,8.77,0,0,1-.08-1.15,7.93,7.93,0,0,1,7.93-7.93,7.77,7.77,0,0,1,1.46.13A6.93,6.93,0,0,1,154.56,236h.12a6.39,6.39,0,0,1,0,12.78H131.22A3.73,3.73,0,0,1,127.58,245Z" style="fill:#161C24"></path><path d="M127.58,245a3.74,3.74,0,0,1,3.75-3.74,3.47,3.47,0,0,1,1.07.16,8.77,8.77,0,0,1-.08-1.15,7.93,7.93,0,0,1,7.93-7.93,7.77,7.77,0,0,1,1.46.13A6.93,6.93,0,0,1,154.56,236h.12a6.39,6.39,0,0,1,0,12.78H131.22A3.73,3.73,0,0,1,127.58,245Z" style="fill:#fff;opacity:0.7000000000000001"></path><path d="M149.12,161.2a2.33,2.33,0,0,1,2.33-2.33,2.47,2.47,0,0,1,.67.1,5.52,5.52,0,0,1-.05-.71,4.94,4.94,0,0,1,4.93-4.94,4.46,4.46,0,0,1,.91.09,4.31,4.31,0,0,1,8,2.18H166a4,4,0,1,1,0,7.95H151.39A2.33,2.33,0,0,1,149.12,161.2Z" style="fill:#161C24"></path><path d="M149.12,161.2a2.33,2.33,0,0,1,2.33-2.33,2.47,2.47,0,0,1,.67.1,5.52,5.52,0,0,1-.05-.71,4.94,4.94,0,0,1,4.93-4.94,4.46,4.46,0,0,1,.91.09,4.31,4.31,0,0,1,8,2.18H166a4,4,0,1,1,0,7.95H151.39A2.33,2.33,0,0,1,149.12,161.2Z" style="fill:#fff;opacity:0.7000000000000001"></path><path d="M222.28,98.94a2.34,2.34,0,0,1,2.33-2.33,2.41,2.41,0,0,1,.67.1,5.52,5.52,0,0,1-.05-.71,4.94,4.94,0,0,1,4.94-4.94,4.6,4.6,0,0,1,.91.09,4.3,4.3,0,0,1,8,2.18h.08a4,4,0,0,1,0,8h-14.6A2.33,2.33,0,0,1,222.28,98.94Z" style="fill:#161C24"></path><path d="M222.28,98.94a2.34,2.34,0,0,1,2.33-2.33,2.41,2.41,0,0,1,.67.1,5.52,5.52,0,0,1-.05-.71,4.94,4.94,0,0,1,4.94-4.94,4.6,4.6,0,0,1,.91.09,4.3,4.3,0,0,1,8,2.18h.08a4,4,0,0,1,0,8h-14.6A2.33,2.33,0,0,1,222.28,98.94Z" style="fill:#fff;opacity:0.7000000000000001"></path><path d="M264.79,154.9a2.33,2.33,0,0,1,2.33-2.33,2.41,2.41,0,0,1,.67.09,5.52,5.52,0,0,1-.05-.71,4.94,4.94,0,0,1,4.94-4.94,4.43,4.43,0,0,1,.9.09,4.31,4.31,0,0,1,8,2.18h.08a4,4,0,0,1,0,7.95h-14.6A2.32,2.32,0,0,1,264.79,154.9Z" style="fill:#161C24"></path><path d="M264.79,154.9a2.33,2.33,0,0,1,2.33-2.33,2.41,2.41,0,0,1,.67.09,5.52,5.52,0,0,1-.05-.71,4.94,4.94,0,0,1,4.94-4.94,4.43,4.43,0,0,1,.9.09,4.31,4.31,0,0,1,8,2.18h.08a4,4,0,0,1,0,7.95h-14.6A2.32,2.32,0,0,1,264.79,154.9Z" style="fill:#fff;opacity:0.7000000000000001"></path><path d="M101.33,183.58a2.34,2.34,0,0,1,2.33-2.33,2.41,2.41,0,0,1,.67.1,5.52,5.52,0,0,1,0-.71,4.94,4.94,0,0,1,4.94-4.94,4.6,4.6,0,0,1,.91.09,4.28,4.28,0,0,1,3.68-2.08,4.33,4.33,0,0,1,4.32,4.26h.07a4,4,0,0,1,0,7.95H103.6A2.33,2.33,0,0,1,101.33,183.58Z" style="fill:#161C24"></path><path d="M101.33,183.58a2.34,2.34,0,0,1,2.33-2.33,2.41,2.41,0,0,1,.67.1,5.52,5.52,0,0,1,0-.71,4.94,4.94,0,0,1,4.94-4.94,4.6,4.6,0,0,1,.91.09,4.28,4.28,0,0,1,3.68-2.08,4.33,4.33,0,0,1,4.32,4.26h.07a4,4,0,0,1,0,7.95H103.6A2.33,2.33,0,0,1,101.33,183.58Z" style="fill:#fff;opacity:0.7000000000000001"></path><path d="M149.12,327.62a2.33,2.33,0,0,1,2.33-2.33,2.13,2.13,0,0,1,.67.1,5.81,5.81,0,0,1-.05-.72,4.94,4.94,0,0,1,4.93-4.94,4.46,4.46,0,0,1,.91.09,4.32,4.32,0,0,1,8,2.18H166a4,4,0,1,1,0,7.95H151.39A2.32,2.32,0,0,1,149.12,327.62Z" style="fill:#161C24"></path><path d="M149.12,327.62a2.33,2.33,0,0,1,2.33-2.33,2.13,2.13,0,0,1,.67.1,5.81,5.81,0,0,1-.05-.72,4.94,4.94,0,0,1,4.93-4.94,4.46,4.46,0,0,1,.91.09,4.32,4.32,0,0,1,8,2.18H166a4,4,0,1,1,0,7.95H151.39A2.32,2.32,0,0,1,149.12,327.62Z" style="fill:#fff;opacity:0.7000000000000001"></path><path d="M195.1,237.36a2.29,2.29,0,0,1,2.29-2.29,2.07,2.07,0,0,1,.66.1,5.65,5.65,0,0,1-.05-.71,4.86,4.86,0,0,1,4.86-4.86,5.29,5.29,0,0,1,.9.08,4.25,4.25,0,0,1,7.88,2.15h.07a3.92,3.92,0,1,1,0,7.83H197.33A2.3,2.3,0,0,1,195.1,237.36Z" style="fill:#161C24"></path><path d="M195.1,237.36a2.29,2.29,0,0,1,2.29-2.29,2.07,2.07,0,0,1,.66.1,5.65,5.65,0,0,1-.05-.71,4.86,4.86,0,0,1,4.86-4.86,5.29,5.29,0,0,1,.9.08,4.25,4.25,0,0,1,7.88,2.15h.07a3.92,3.92,0,1,1,0,7.83H197.33A2.3,2.3,0,0,1,195.1,237.36Z" style="fill:#fff;opacity:0.7000000000000001"></path></g><g id="freepik--Stars--inject-72"><path d="M117.61,257.3s-5.61-4.64-6.4-4.5.33,8,.33,8-5.58,3.8-5.77,4.55,6.94,1.73,6.94,1.73,1.25,7.34,1.87,7.56,5.08-7.45,5.08-7.45,7.56.78,8,.3-5.75-5.94-5.75-5.94,3.13-6.46,2.68-6.89S117.61,257.3,117.61,257.3Z" style="fill:#161C24"></path><polygon points="123 255.7 116.35 261.63 111.59 253.64 117.4 257.64 123 255.7" style="fill:#fff;isolation:isolate;opacity:0.2"></polygon><path d="M106.83,265.12l9.52-3.5-4.55-.5S106.86,264.31,106.83,265.12Z" style="fill:#fff;isolation:isolate;opacity:0.2"></path><polygon points="116.35 261.63 127.08 267.01 121.22 261.88 116.35 261.63" style="fill:#fff;isolation:isolate;opacity:0.2"></polygon><polygon points="116.28 262.26 115.02 273.61 118.92 266.85 116.28 262.26" style="isolation:isolate;opacity:0.2"></polygon><path d="M113.05,266.35l2.79-4.07-9,2.84A17.94,17.94,0,0,0,113.05,266.35Z" style="isolation:isolate;opacity:0.2"></path><path d="M175.1,342.38s-3-3.53-3.56-3.53-.65,5.08-.65,5.08-3.94,1.8-4.14,2.25S171,348,171,348s0,4.77.37,5,4-4.16,4-4.16,4.69,1.31,5,1.05-3-4.37-3-4.37,2.67-3.74,2.43-4.06S175.1,342.38,175.1,342.38Z" style="fill:#161C24"></path><polygon points="178.67 341.95 173.83 344.98 171.69 339.42 174.93 342.57 178.67 341.95" style="fill:#fff;isolation:isolate;opacity:0.2"></polygon><path d="M167.45,346.16l6.38-1.18-2.81-.81S167.56,345.65,167.45,346.16Z" style="fill:#fff;isolation:isolate;opacity:0.2"></path><polygon points="173.83 344.98 180.03 349.54 176.89 345.66 173.83 344.98" style="fill:#fff;isolation:isolate;opacity:0.2"></polygon><polygon points="173.72 345.37 171.71 352.4 174.9 348.55 173.72 345.37" style="isolation:isolate;opacity:0.2"></polygon><path d="M171.25,347.61l2.2-2.28-6,.83A11.63,11.63,0,0,0,171.25,347.61Z" style="isolation:isolate;opacity:0.2"></path><path d="M243,300a15,15,0,0,0-.45-3.18c-.26-.2-2.3,2.34-2.3,2.34a16,16,0,0,0-3-.46c-.28.15,1.42,2.57,1.42,2.57s-1.84,2.43-1.73,2.68,3.65-.57,3.65-.57a17.66,17.66,0,0,0,2.15,2.49c.28,0,.17-3.39.17-3.39s2.82-.87,2.82-1.13S243,300,243,300Z" style="fill:#161C24"></path><polygon points="244.97 301.12 241.34 300.78 242.4 297.12 242.83 299.98 244.97 301.12" style="fill:#fff;isolation:isolate;opacity:0.2"></polygon><path d="M237.62,298.91l3.72,1.87-1.12-1.5S237.87,298.69,237.62,298.91Z" style="fill:#fff;isolation:isolate;opacity:0.2"></path><polygon points="241.34 300.78 242.73 305.51 242.63 302.31 241.34 300.78" style="fill:#fff;isolation:isolate;opacity:0.2"></polygon><polygon points="241.13 300.94 237.38 303.74 240.49 303.02 241.13 300.94" style="isolation:isolate;opacity:0.2"></polygon><path d="M239,301.12l2-.31-3.38-1.9A7.3,7.3,0,0,0,239,301.12Z" style="isolation:isolate;opacity:0.2"></path><path d="M162.71,181.75a15,15,0,0,0-.44-3.19c-.26-.2-2.3,2.34-2.3,2.34a16,16,0,0,0-3-.45c-.27.15,1.43,2.57,1.43,2.57a15.19,15.19,0,0,0-1.74,2.67c.11.25,3.66-.56,3.66-.56a17.61,17.61,0,0,0,2.15,2.48c.27,0,.17-3.39.17-3.39s2.81-.87,2.82-1.12S162.71,181.75,162.71,181.75Z" style="fill:#161C24"></path><polygon points="164.7 182.91 161.06 182.58 162.13 178.92 162.55 181.78 164.7 182.91" style="fill:#fff;isolation:isolate;opacity:0.2"></polygon><path d="M157.35,180.71l3.71,1.87-1.12-1.5S157.6,180.49,157.35,180.71Z" style="fill:#fff;isolation:isolate;opacity:0.2"></path><polygon points="161.06 182.58 162.46 187.31 162.35 184.11 161.06 182.58" style="fill:#fff;isolation:isolate;opacity:0.2"></polygon><polygon points="160.85 182.74 157.1 185.54 160.22 184.81 160.85 182.74" style="isolation:isolate;opacity:0.2"></polygon><path d="M158.72,182.92l2-.31-3.38-1.9A7.4,7.4,0,0,0,158.72,182.92Z" style="isolation:isolate;opacity:0.2"></path><path d="M111.27,115.44a14.63,14.63,0,0,0-3.16-.57c-.28.18,1.5,2.92,1.5,2.92a15.62,15.62,0,0,0-1.37,2.69c.06.31,2.88-.55,2.88-.55a15.27,15.27,0,0,0,2,2.49c.27,0,.61-3.65.61-3.65a17.24,17.24,0,0,0,3-1.27c.09-.26-3.16-1.22-3.16-1.22s.05-3-.19-3S111.27,115.44,111.27,115.44Z" style="fill:#161C24"></path><polygon points="113 113.92 111.54 117.27 108.39 115.11 111.24 115.6 113 113.92" style="fill:#fff;isolation:isolate;opacity:0.2"></polygon><path d="M108.6,120.21l2.94-2.94-1.78.59S108.47,119.9,108.6,120.21Z" style="fill:#fff;isolation:isolate;opacity:0.2"></path><polygon points="111.54 117.27 116.47 117.43 113.4 116.52 111.54 117.27" style="fill:#fff;isolation:isolate;opacity:0.2"></polygon><polygon points="111.62 117.52 113.11 121.96 113.4 118.77 111.62 117.52" style="isolation:isolate;opacity:0.2"></polygon><path d="M111.13,119.6l.33-2-2.86,2.61A7.39,7.39,0,0,0,111.13,119.6Z" style="isolation:isolate;opacity:0.2"></path><path d="M264.51,110.71a15.24,15.24,0,0,0-3.16-.58c-.27.19,1.5,2.92,1.5,2.92a15.62,15.62,0,0,0-1.37,2.69c.06.31,2.89-.55,2.89-.55s1.72,2.52,2,2.49S267,114,267,114a18.47,18.47,0,0,0,3-1.27c.08-.26-3.17-1.23-3.17-1.23s.05-2.94-.19-3S264.51,110.71,264.51,110.71Z" style="fill:#161C24"></path><polygon points="266.24 109.19 264.78 112.53 261.64 110.38 264.49 110.87 266.24 109.19" style="fill:#fff;isolation:isolate;opacity:0.2"></polygon><path d="M261.84,115.48l2.94-2.94-1.78.59S261.71,115.17,261.84,115.48Z" style="fill:#fff;isolation:isolate;opacity:0.2"></path><polygon points="264.78 112.53 269.71 112.69 266.64 111.79 264.78 112.53" style="fill:#fff;isolation:isolate;opacity:0.2"></polygon><polygon points="264.87 112.78 266.35 117.22 266.64 114.04 264.87 112.78" style="isolation:isolate;opacity:0.2"></polygon><path d="M264.37,114.86l.34-2-2.87,2.62A7.26,7.26,0,0,0,264.37,114.86Z" style="isolation:isolate;opacity:0.2"></path><path d="M256,165.1s-3-3.53-3.55-3.53-.66,5.08-.66,5.08-3.93,1.8-4.13,2.25,4.2,1.84,4.2,1.84,0,4.77.36,5,4-4.16,4-4.16,4.69,1.31,5,1.05-3-4.37-3-4.37,2.68-3.74,2.44-4.06S256,165.1,256,165.1Z" style="fill:#161C24"></path><polygon points="259.62 164.67 254.78 167.7 252.64 162.14 255.87 165.29 259.62 164.67" style="fill:#fff;isolation:isolate;opacity:0.2"></polygon><path d="M248.39,168.88l6.39-1.18-2.82-.81S248.5,168.37,248.39,168.88Z" style="fill:#fff;isolation:isolate;opacity:0.2"></path><polygon points="254.78 167.7 260.98 172.26 257.83 168.38 254.78 167.7" style="fill:#fff;isolation:isolate;opacity:0.2"></polygon><polygon points="254.67 168.09 252.65 175.12 255.84 171.27 254.67 168.09" style="isolation:isolate;opacity:0.2"></polygon><path d="M252.19,170.33l2.2-2.28-6,.83A11.63,11.63,0,0,0,252.19,170.33Z" style="isolation:isolate;opacity:0.2"></path><path d="M82.74,164.53s-.36-4.65-.77-5-3.54,3.71-3.54,3.71-4.24-.87-4.66-.63,2.29,4,2.29,4-2.82,3.84-2.64,4.23,5.68-1,5.68-1,3,3.83,3.43,3.82.18-5.3.18-5.3,4.37-1.43,4.36-1.83S82.74,164.53,82.74,164.53Z" style="fill:#161C24"></path><polygon points="85.88 166.29 80.19 165.87 81.75 160.12 82.49 164.58 85.88 166.29" style="fill:#fff;isolation:isolate;opacity:0.2"></polygon><path d="M74.34,163l5.85,2.83-1.79-2.32S74.73,162.7,74.34,163Z" style="fill:#fff;isolation:isolate;opacity:0.2"></path><polygon points="80.19 165.87 82.49 173.21 82.24 168.22 80.19 165.87" style="fill:#fff;isolation:isolate;opacity:0.2"></polygon><polygon points="79.87 166.12 74.08 170.59 78.93 169.38 79.87 166.12" style="isolation:isolate;opacity:0.2"></polygon><path d="M76.55,166.46l3.12-.53L74.34,163A11.43,11.43,0,0,0,76.55,166.46Z" style="isolation:isolate;opacity:0.2"></path><path d="M179.37,227.43s.7-4.61.36-5-4.28,2.81-4.28,2.81-3.93-1.81-4.4-1.67,1.34,4.39,1.34,4.39-3.62,3.11-3.53,3.52,5.76.33,5.76.33,2.06,4.41,2.48,4.5,1.36-5.12,1.36-5.12,4.58-.41,4.67-.8S179.37,227.43,179.37,227.43Z" style="fill:#161C24"></path><polygon points="182.02 229.86 176.58 228.16 179.4 222.92 179.12 227.42 182.02 229.86" style="fill:#fff;isolation:isolate;opacity:0.2"></polygon><path d="M171.52,224.09l5.06,4.07-1.22-2.66S172,223.84,171.52,224.09Z" style="fill:#fff;isolation:isolate;opacity:0.2"></path><polygon points="176.58 228.16 177.16 235.83 178.05 230.92 176.58 228.16" style="fill:#fff;isolation:isolate;opacity:0.2"></polygon><polygon points="176.21 228.33 169.56 231.38 174.56 231.29 176.21 228.33" style="isolation:isolate;opacity:0.2"></polygon><path d="M172.9,227.91l3.15.19-4.53-4A11.45,11.45,0,0,0,172.9,227.91Z" style="isolation:isolate;opacity:0.2"></path></g><g id="freepik--Ship--inject-72"><path d="M212.55,132.8a9.69,9.69,0,0,1-2-4.18c-1.32-6.13,3.51-12.37,10.79-13.93s14.24,2.14,15.56,8.27a9.86,9.86,0,0,1-.15,4.65Z" style="fill:#161C24"></path><path d="M212.55,132.8a9.69,9.69,0,0,1-2-4.18c-1.32-6.13,3.51-12.37,10.79-13.93s14.24,2.14,15.56,8.27a9.86,9.86,0,0,1-.15,4.65Z" style="fill:#fff;isolation:isolate;opacity:0.4"></path><path d="M194.4,134.88a1.62,1.62,0,0,0,.49.84c2.73,2.69,15.69,2.41,30.75-.82s27-8.3,28.37-11.87a1.57,1.57,0,0,0,.1-1c-.76-3.55-14.74-3.56-31.23,0S193.64,131.33,194.4,134.88Z" style="fill:#161C24"></path><path d="M194.89,135.72c2.73,2.69,15.69,2.41,30.75-.82s27-8.3,28.37-11.87c-2.71-2.69-15.68-2.42-30.74.82S196.27,132.16,194.89,135.72Z" style="isolation:isolate;opacity:0.2"></path><path d="M214.78,133.73a.62.62,0,0,0,.17.29c.92.92,5.33.82,10.44-.28s9.17-2.82,9.64-4a.63.63,0,0,0,0-.33c-.09-.4-.66-.67-1.6-.8a36.84,36.84,0,0,0-17.55,3.77C215.11,132.85,214.7,133.34,214.78,133.73Z" style="fill:#161C24"></path><path d="M215.91,132.35a36.52,36.52,0,0,0,17.55-3.77,36.84,36.84,0,0,0-17.55,3.77Z" style="fill:#fff;isolation:isolate;opacity:0.4"></path><path d="M221.06,127c.12.6,1.21.87,2.42.61s2.08-1,2-1.55-1.21-.86-2.42-.6S220.93,126.36,221.06,127Z" style="fill:#161C24"></path><path d="M209.52,130.55c.13.6,1.21.87,2.42.61s2.08-.95,2-1.55-1.21-.86-2.42-.6S209.39,130,209.52,130.55Z" style="fill:#161C24"></path><path d="M202.14,135.31c.13.59,1.21.86,2.42.6s2.09-.95,2-1.54-1.21-.86-2.42-.61S202,134.72,202.14,135.31Z" style="fill:#161C24"></path><path d="M237.09,124.17c.13.59-.75,1.28-2,1.54s-2.3,0-2.42-.6.75-1.28,1.95-1.54S237,123.58,237.09,124.17Z" style="fill:#161C24"></path><path d="M245.77,125.48c.13.59-.75,1.28-2,1.54s-2.29,0-2.42-.6.75-1.29,2-1.55S245.64,124.88,245.77,125.48Z" style="fill:#161C24"></path><path d="M217.45,117.76a.31.31,0,0,0,.12-.05,13.21,13.21,0,0,1,2.75-1.34.35.35,0,0,0,.22-.44.34.34,0,0,0-.44-.21,13.49,13.49,0,0,0-2.91,1.41.34.34,0,0,0-.1.48A.35.35,0,0,0,217.45,117.76Z" style="fill:#fff"></path><path d="M232.78,118.81a.34.34,0,0,0,.18-.11.35.35,0,0,0,0-.49,12.66,12.66,0,0,0-10.62-3,.36.36,0,0,0-.29.4.35.35,0,0,0,.4.28,12,12,0,0,1,10,2.88A.37.37,0,0,0,232.78,118.81Z" style="fill:#fff"></path></g><g id="freepik--Planet--inject-72"><path d="M188.7,272.68a15.52,15.52,0,0,1-.54,3.7,14.51,14.51,0,0,1-1,2.63,15.44,15.44,0,0,1-26.56,2.17,15.17,15.17,0,0,1-1.14-1.9c-.22-.44-.42-.88-.6-1.34a14.72,14.72,0,0,1-.64-2.11,11.91,11.91,0,0,1-.25-1.35,13.77,13.77,0,0,1-.15-2.5c0-.17,0-.35,0-.53a15.43,15.43,0,0,1,23-12.58,15.74,15.74,0,0,1,2.89,2.11,15.24,15.24,0,0,1,3.32,4.36,16,16,0,0,1,.77,1.8,11.47,11.47,0,0,1,.43,1.41,8.13,8.13,0,0,1,.21,1A15.58,15.58,0,0,1,188.7,272.68Z" style="fill:#161C24"></path><path d="M187.8,267.14a8.17,8.17,0,0,0-1.39-.26c-2.5-.2-5.85-.13-8.57,2.88s-3.76-.23-10.62.92a28.23,28.23,0,0,0-9.23,3.8,13.77,13.77,0,0,1-.15-2.5c0-.17,0-.35,0-.53,3.87-2.82-.14-5.11,6.27-5.77,7.83-.8,7,.44,11-4.35a7.47,7.47,0,0,1,5.72-2.46,15.74,15.74,0,0,1,2.89,2.11,15.24,15.24,0,0,1,3.32,4.36A16,16,0,0,1,187.8,267.14Z" style="fill:#fff;isolation:isolate;opacity:0.2"></path><path d="M188.7,272.68a15.52,15.52,0,0,1-.54,3.7,14.51,14.51,0,0,1-1,2.63c-1.76-.05-3.36-.87-5.62-1.09-3.76-.36-4.33.19-5.76,1.69s-5,.16-7.81.39c-1.81.14-5.19.76-7.37,1.18a15.17,15.17,0,0,1-1.14-1.9c2.91-.55,7.44-1.45,8.28-1.8,1.27-.54,5.91-2.24,8.83-1.9s3-2.71,4.86-5.46c1.5-2.19,3.21-2.12,6.78-1.57a8.13,8.13,0,0,1,.21,1A15.58,15.58,0,0,1,188.7,272.68Z" style="fill:#fff;isolation:isolate;opacity:0.2"></path><path d="M187,265.34a52.09,52.09,0,0,1-5.8-.52c-3.47-.57-3.54,2.21-4,3.22s-1.82.33-3.06,0-3.71.18-5.81.5-5.55,2-5.18,1.11,2.55-1.4,4.3-1.76a30.26,30.26,0,0,1,4.62-.82c1.88-.17,4-.47,5.39-1.42s3-4.46,6.27-4.65A15.24,15.24,0,0,1,187,265.34Z" style="fill:#fff;isolation:isolate;opacity:0.2"></path><path d="M188.7,272.68a15.52,15.52,0,0,1-.54,3.7,2.35,2.35,0,0,0-.64-.13c-1.05,0-3.07.28-4.11-.23s-2,0-4.61.66-2.39.93-4.57,1.91-4.28.68-4.4-.1,3.18-1.73,4.36-1.57,3.36-.62,3.85-.61a8.84,8.84,0,0,0,2-.79c.35-.13,2.24-.43,2.4-1.34s.15-3.13,3.66-4.52a4.28,4.28,0,0,1,2.3-.13A15.58,15.58,0,0,1,188.7,272.68Z" style="fill:#fff;isolation:isolate;opacity:0.2"></path><path d="M172.57,273.33c0,.49-8.29,4-10.17,4a15.75,15.75,0,0,0-3.52.65,14.72,14.72,0,0,1-.64-2.11,39.06,39.06,0,0,1,5.15-2.28c2.67-.85,4.13-1,5.52-.79S172.61,272.85,172.57,273.33Z" style="fill:#fff;isolation:isolate;opacity:0.2"></path><path d="M157,277.49s-10.08,3.07-10.71,2c-1.88-3.24,20.81-13.57,43.47-16.83s2,5.5,2,5.5,5-3.57,2.92-3.61c-3.85-.09-27.92,5.54-40.47,11.92C152.59,277.25,157,277.49,157,277.49Z" style="fill:#161C24"></path><path d="M157,277.49s-10.08,3.07-10.71,2c-1.88-3.24,20.81-13.57,43.47-16.83s2,5.5,2,5.5,5-3.57,2.92-3.61c-3.85-.09-27.92,5.54-40.47,11.92C152.59,277.25,157,277.49,157,277.49Z" style="fill:#fff;isolation:isolate;opacity:0.5"></path></g><g id="freepik--Airplane--inject-72"><path d="M124.49,219.8l.23.14.39.24,8.73-.8h0l-3.08-2.46-6.2,2.19A.38.38,0,0,0,124.49,219.8Z" style="fill:#161C24"></path><path d="M124.72,219.94l.39.24,8.73-.8-2.69-2.15-6.2,2.19A.38.38,0,0,0,124.72,219.94Z" style="opacity:0.2"></path><path d="M132.07,215.76l5.14,3.35,0-.12,2.84-7.05-1.36-.67-.05,0a1.76,1.76,0,0,0-1.88.29Z" style="fill:#161C24"></path><path d="M132.48,215.89l4.78,3.1,2.84-7.05-1.36-.67-.05,0a1.74,1.74,0,0,0-1.47.42Z" style="opacity:0.2"></path><path d="M73.21,205.62l0,0,2.12,1.7h29.78l-3.76-3.77-3.06-3.06L73.7,204A.93.93,0,0,0,73.21,205.62Z" style="fill:#161C24"></path><path d="M75.58,206.31l1,1.05h28.52l-3.76-3.77-25.54,2A.42.42,0,0,0,75.58,206.31Z" style="fill:#fff;opacity:0.7000000000000001"></path><path d="M73.21,205.62l0,0,2.12,1.7h29.48l-6.21-6.23L74,204.61A.93.93,0,0,0,73.21,205.62Z" style="opacity:0.2"></path><path d="M87.94,204.4a1.73,1.73,0,0,1-.37-1.15,2.12,2.12,0,0,1,1.56-2.1,1.19,1.19,0,0,1,1,.26c1.61,1,7.06,4.91,7.93,6.93.54,1.27-1.38.59-2.7.32s-5.06-2.48-7.1-4l-.13-.1h0A.69.69,0,0,1,87.94,204.4Z" style="fill:#161C24"></path><path d="M87.57,203.25a1.78,1.78,0,0,0,.36,1.15,1,1,0,0,0,.18.17l.13.1c.28.21.59.42.92.65,2.09,1.43,5,3.12,6.17,3.34,1.33.27,3.25,1,2.71-.32-.71-1.64-4.45-4.52-6.69-6.09-.51-.36-.94-.65-1.24-.84a1.2,1.2,0,0,0-1-.26A2.12,2.12,0,0,0,87.57,203.25Z" style="fill:#fff;opacity:0.7000000000000001"></path><path d="M87.57,203.25a1.78,1.78,0,0,0,.36,1.15,1,1,0,0,0,.18.17l.13.1c.28.21.59.42.92.65A2.24,2.24,0,0,0,90.3,205a2.46,2.46,0,0,0,1-2.79c-.51-.36-.94-.65-1.24-.84a1.2,1.2,0,0,0-1-.26A2.12,2.12,0,0,0,87.57,203.25Z" style="fill:#161C24"></path><path d="M87.68,202.93c0,.76.5,1.29,1.14,1.19A1.59,1.59,0,0,0,90,202.55c0-.76-.5-1.29-1.14-1.19A1.59,1.59,0,0,0,87.68,202.93Z" style="opacity:0.2"></path><path d="M89.17,202.34c-.12-.16-.84-.19-.86,0,0,.56.31,1,.58.9A.58.58,0,0,0,89.17,202.34Z" style="fill:#161C24"></path><path d="M97.61,209.09c.84.16-7.58-5.55-7.58-5.55a1.42,1.42,0,0,1-1.72.77A22.19,22.19,0,0,0,97.61,209.09Z" style="opacity:0.2"></path><path d="M80.05,205.15a1.3,1.3,0,0,1-.28-.85,1.57,1.57,0,0,1,1.16-1.55.89.89,0,0,1,.72.19c1.19.77,5.21,3.63,5.85,5.12.4.94-1,.43-2,.24a22.26,22.26,0,0,1-5.24-3l-.1-.07h0A.49.49,0,0,1,80.05,205.15Z" style="fill:#161C24"></path><path d="M79.78,204.3a1.24,1.24,0,0,0,.27.85.49.49,0,0,0,.12.13l.1.07.68.48a20.2,20.2,0,0,0,4.56,2.47c1,.2,2.39.7,2-.24-.52-1.21-3.28-3.33-4.93-4.49-.38-.27-.7-.49-.92-.63a.9.9,0,0,0-.72-.19A1.55,1.55,0,0,0,79.78,204.3Z" style="fill:#fff;opacity:0.7000000000000001"></path><path d="M79.78,204.3a1.24,1.24,0,0,0,.27.85.49.49,0,0,0,.12.13l.1.07.68.48a1.57,1.57,0,0,0,.84-.21,1.81,1.81,0,0,0,.78-2.05c-.38-.27-.7-.49-.92-.63a.9.9,0,0,0-.72-.19A1.55,1.55,0,0,0,79.78,204.3Z" style="fill:#161C24"></path><path d="M79.86,204.06c0,.57.37,1,.84.88a1.15,1.15,0,0,0,.86-1.15c0-.57-.37-1-.84-.88A1.15,1.15,0,0,0,79.86,204.06Z" style="opacity:0.2"></path><path d="M81,203.63c-.09-.11-.63-.14-.64,0,0,.41.23.7.43.67A.44.44,0,0,0,81,203.63Z" style="fill:#161C24"></path><path d="M87,208.51c.61.12-5.44-4-5.44-4a1,1,0,0,1-1.24.55A16,16,0,0,0,87,208.51Z" style="opacity:0.2"></path><path d="M82.28,191.45a3.89,3.89,0,0,0,.58,1.19,7.94,7.94,0,0,0,2.26,2.11l.52.33h0c.94.61,1.84,1.18,2.39,1.52l23.79,15.1a46.06,46.06,0,0,0,13.29,5.75l1.54.4,8.11,2.08a2.11,2.11,0,0,0,1.74-.32h0l1.19-.84-6.41-4.53q-1.86-1.32-3.8-2.49l-31.9-19.3c-4.76-2.67-6.08-2.57-8.79-2.11a12.3,12.3,0,0,0-3.61-.18,1,1,0,0,0-.83.57A1,1,0,0,0,82.28,191.45Z" style="fill:#161C24"></path><path d="M82.28,191.45a3.89,3.89,0,0,0,.58,1.19,7.94,7.94,0,0,0,2.26,2.11l.52.33h0l0,0h0c.91.6,1.79,1.15,2.33,1.48l7.12,4.52,16.67,10.58.41.25a46.16,46.16,0,0,0,12.88,5.5l1.54.4,8.11,2.08a2.08,2.08,0,0,0,1.74-.32l1.19-.84-6.41-4.53q-1.86-1.32-3.8-2.49l-3.75-2.27-17-10.28-11.15-6.75c-4.76-2.67-6.08-2.57-8.79-2.11l-.31-.06a12.37,12.37,0,0,0-3.3-.12,1,1,0,0,0-.83.57A1,1,0,0,0,82.28,191.45Z" style="fill:#fff;opacity:0.7000000000000001"></path><path d="M128.72,214.17a.44.44,0,0,1-.24-.07l-.25-.16a.44.44,0,0,1-.15-.62.45.45,0,0,1,.62-.15l.26.16a.45.45,0,0,1,.15.62A.47.47,0,0,1,128.72,214.17Z" style="fill:#263238"></path><path d="M127.19,213.24a.44.44,0,0,1-.24-.07l-.51-.3a.46.46,0,0,1-.15-.63.45.45,0,0,1,.62-.15l.51.31a.45.45,0,0,1,.16.62A.47.47,0,0,1,127.19,213.24Zm-1.79-1.08a.39.39,0,0,1-.23-.07l-.51-.31a.45.45,0,0,1-.16-.62.46.46,0,0,1,.63-.15l.51.31a.45.45,0,0,1,.15.62A.46.46,0,0,1,125.4,212.16Zm-1.79-1.08a.48.48,0,0,1-.23-.07l-.51-.31a.45.45,0,0,1-.15-.62.45.45,0,0,1,.62-.16l.51.31a.46.46,0,0,1,.15.63A.44.44,0,0,1,123.61,211.08ZM121.83,210a.53.53,0,0,1-.24-.06l-.51-.31a.45.45,0,0,1-.15-.62.45.45,0,0,1,.62-.16l.51.31a.45.45,0,0,1-.23.84ZM120,208.91a.46.46,0,0,1-.23-.06l-.52-.31a.46.46,0,0,1-.15-.63.45.45,0,0,1,.62-.15l.51.31a.45.45,0,0,1,.16.62A.47.47,0,0,1,120,208.91Zm-1.79-1.08a.39.39,0,0,1-.23-.07l-.51-.31a.46.46,0,0,1-.16-.62.47.47,0,0,1,.63-.15l.51.31a.45.45,0,0,1,.15.62A.44.44,0,0,1,118.25,207.83Zm-1.78-1.08a.42.42,0,0,1-.24-.07l-.51-.31a.45.45,0,1,1,.47-.77l.51.31a.45.45,0,0,1-.23.84Zm-1.79-1.08a.39.39,0,0,1-.23-.07l-.51-.31a.45.45,0,0,1-.16-.62.46.46,0,0,1,.63-.15l.51.31a.45.45,0,0,1,.15.62A.47.47,0,0,1,114.68,205.67Zm-1.79-1.09a.46.46,0,0,1-.23-.06l-.51-.31a.45.45,0,0,1-.16-.62.46.46,0,0,1,.63-.16l.51.31a.46.46,0,0,1,.15.63A.44.44,0,0,1,112.89,204.58Zm-1.78-1.08a.5.5,0,0,1-.24-.06l-.51-.31a.46.46,0,0,1-.15-.63.45.45,0,0,1,.62-.15l.51.31a.45.45,0,0,1,.15.62A.44.44,0,0,1,111.11,203.5Zm-1.79-1.08a.44.44,0,0,1-.24-.07l-.51-.31a.45.45,0,0,1,.47-.77l.51.31a.45.45,0,0,1,.16.62A.47.47,0,0,1,109.32,202.42Zm-1.79-1.08a.39.39,0,0,1-.23-.07l-.51-.31a.45.45,0,0,1-.16-.62.46.46,0,0,1,.63-.15l.51.31a.45.45,0,0,1,.15.62A.47.47,0,0,1,107.53,201.34Zm-1.79-1.09a.46.46,0,0,1-.23-.06l-.51-.31a.46.46,0,0,1,.47-.78l.51.31a.46.46,0,0,1,.15.63A.44.44,0,0,1,105.74,200.25ZM104,199.17a.53.53,0,0,1-.24-.06l-.51-.31a.46.46,0,0,1-.15-.63.45.45,0,0,1,.62-.15l.51.31a.45.45,0,0,1,.16.62A.47.47,0,0,1,104,199.17Zm-1.79-1.08a.44.44,0,0,1-.24-.07l-.51-.3a.46.46,0,0,1-.15-.63.45.45,0,0,1,.62-.15l.52.31a.45.45,0,0,1,.15.62A.47.47,0,0,1,102.17,198.09Zm-2-1.15.23-.39-.31.35-.43-.27a.45.45,0,0,1-.16-.62.46.46,0,0,1,.63-.15l.43.26-.16.43Zm-1.56-1a.48.48,0,0,1-.23-.07l-.51-.31a.45.45,0,0,1,.47-.77l.51.3a.46.46,0,0,1,.15.63A.44.44,0,0,1,98.59,195.93Zm-1.78-1.09a.53.53,0,0,1-.24-.06l-.51-.31a.45.45,0,0,1-.15-.62.45.45,0,0,1,.62-.16L97,194a.45.45,0,0,1,.16.62A.47.47,0,0,1,96.81,194.84Z" style="fill:#263238"></path><path d="M95,193.77a.46.46,0,0,1-.23-.06l-.26-.16a.45.45,0,0,1,.47-.77l.26.15a.45.45,0,0,1-.24.84Z" style="fill:#263238"></path><path d="M92.47,192.29v-1a7.25,7.25,0,0,0-4.54-1.07l-1.15.17A9.19,9.19,0,0,1,92,192Z" style="fill:#263238"></path><path d="M82.28,191.45a3.89,3.89,0,0,0,.58,1.19c.66.49,1.5,1.06,2.47,1.67,3,1.91,24.79,15.58,27.67,17.63,2.09,1.49,6.57,3.75,13.65,5.91,2.41.73,5.12,1.45,8.15,2.12a2.09,2.09,0,0,0,1.66-.33l0,0s-9.55-3.21-11.71-4.41-33.09-20.31-36.23-22a21.4,21.4,0,0,0-6.21-2.43A1,1,0,0,0,82.28,191.45Z" style="opacity:0.2"></path><path d="M104.09,201.3l.14.09,1.62,1,7,4.52a2.61,2.61,0,0,0,1.41.41h33.3L146.36,206a6.27,6.27,0,0,0-4.05-2l-38-3.46A.42.42,0,0,0,104.09,201.3Z" style="fill:#161C24"></path><path d="M105.85,202.43l7,4.52a2.61,2.61,0,0,0,1.41.41h32.32a6.26,6.26,0,0,0-3.57-1.53Z" style="fill:#fff;opacity:0.7000000000000001"></path><path d="M104.23,201.39l8.66,5.56a2.61,2.61,0,0,0,1.41.41h33.05l-.68-.75a6.28,6.28,0,0,0-4.06-2l-38-3.47A.39.39,0,0,0,104.23,201.39Z" style="opacity:0.2"></path><path d="M115.16,204.4a1.85,1.85,0,0,1-.37-1.16,2.12,2.12,0,0,1,1.57-2.09,1.21,1.21,0,0,1,1,.25c1.62,1,7.07,4.92,7.93,6.94.55,1.27-1.37.59-2.7.32s-5.06-2.48-7.1-4l-.13-.1h0A.91.91,0,0,1,115.16,204.4Z" style="fill:#161C24"></path><path d="M114.79,203.24a1.85,1.85,0,0,0,.37,1.16.91.91,0,0,0,.17.17l.13.1.92.65c2.1,1.43,5.05,3.12,6.18,3.34,1.33.27,3.25,1,2.7-.32-.7-1.64-4.45-4.52-6.69-6.09-.51-.36-.94-.65-1.24-.85a1.21,1.21,0,0,0-1-.25A2.13,2.13,0,0,0,114.79,203.24Z" style="fill:#fff;opacity:0.7000000000000001"></path><path d="M114.79,203.24a1.85,1.85,0,0,0,.37,1.16.91.91,0,0,0,.17.17l.13.1.92.65a2.28,2.28,0,0,0,1.15-.28,2.44,2.44,0,0,0,1-2.79c-.51-.36-.94-.65-1.24-.85a1.21,1.21,0,0,0-1-.25A2.13,2.13,0,0,0,114.79,203.24Z" style="fill:#161C24"></path><path d="M114.9,202.93c0,.76.5,1.29,1.14,1.19a1.58,1.58,0,0,0,1.17-1.57c0-.76-.5-1.3-1.13-1.19A1.58,1.58,0,0,0,114.9,202.93Z" style="opacity:0.2"></path><path d="M116.39,202.34c-.11-.16-.84-.19-.85,0,0,.57.3,1,.58.91A.58.58,0,0,0,116.39,202.34Z" style="fill:#161C24"></path><path d="M124.84,209.09c.84.16-7.58-5.56-7.58-5.56a1.43,1.43,0,0,1-1.73.78A22.27,22.27,0,0,0,124.84,209.09Z" style="opacity:0.2"></path><path d="M128.45,205.15a1.3,1.3,0,0,1-.28-.85,1.57,1.57,0,0,1,1.16-1.55.91.91,0,0,1,.72.19c1.19.77,5.21,3.63,5.85,5.12.4.94-1,.43-2,.24a22.26,22.26,0,0,1-5.24-3l-.1-.07h0A.49.49,0,0,1,128.45,205.15Z" style="fill:#161C24"></path><path d="M128.17,204.3a1.35,1.35,0,0,0,.27.85l.13.13.1.07.68.48a20.17,20.17,0,0,0,4.55,2.47c1,.2,2.4.7,2-.24-.52-1.21-3.28-3.33-4.93-4.49-.38-.27-.7-.49-.92-.63a.91.91,0,0,0-.72-.19A1.57,1.57,0,0,0,128.17,204.3Z" style="fill:#fff;opacity:0.7000000000000001"></path><path d="M128.17,204.3a1.35,1.35,0,0,0,.27.85l.13.13.1.07.68.48a1.57,1.57,0,0,0,.84-.21,1.81,1.81,0,0,0,.78-2.05c-.38-.27-.7-.49-.92-.63a.91.91,0,0,0-.72-.19A1.57,1.57,0,0,0,128.17,204.3Z" style="fill:#161C24"></path><path d="M128.26,204.06c0,.57.37,1,.84.88a1.16,1.16,0,0,0,.86-1.15c0-.57-.37-1-.84-.88A1.15,1.15,0,0,0,128.26,204.06Z" style="opacity:0.2"></path><path d="M129.36,203.63c-.09-.11-.63-.14-.64,0,0,.41.23.7.43.67C129.18,204.3,129.66,204,129.36,203.63Z" style="fill:#161C24"></path><path d="M135.39,208.51c.61.12-5.44-4-5.44-4a1,1,0,0,1-1.24.55A16,16,0,0,0,135.39,208.51Z" style="opacity:0.2"></path><path d="M146.84,220.22,136,219.43l-5.21-2.51,13.75,1.67a2.17,2.17,0,0,1,1.27.61Z" style="fill:#161C24"></path><path d="M132.21,217.61l0,0,3.71,1.79,10.39.75.48,0-1.06-1a2.17,2.17,0,0,0-1.27-.61l-12.09-1.47A.28.28,0,0,0,132.21,217.61Z" style="fill:#161C24"></path><path d="M132.21,217.61l0,0,3.71,1.79,10.39.75-.58-.55a2.17,2.17,0,0,0-1.27-.61l-12.09-1.47A.24.24,0,0,0,132.21,217.61Z" style="opacity:0.2"></path></g><g id="freepik--light-bulb--inject-72"><path d="M222.67,206.15c1.25,2.88-1.69,6.94-6.57,9.07s-9.86,1.5-11.11-1.38,1.68-7,6.56-9.07S221.41,203.26,222.67,206.15Z" style="fill:#263238"></path><path d="M222.32,194.91a2.75,2.75,0,0,0,0-2.07c-1.23-2.83-8.25-2.5-15.68.73s-12.45,8.15-11.22,11a2.78,2.78,0,0,0,1.54,1.38,2.25,2.25,0,0,0,.17,1,2.7,2.7,0,0,0,1.55,1.35,2.09,2.09,0,0,0,.16,1,2.64,2.64,0,0,0,1.56,1.32,2.19,2.19,0,0,0,.15,1.06,2.57,2.57,0,0,0,1.58,1.3,2,2,0,0,0,.13,1.08c1,2.35,6.86,2.08,13-.6s10.35-6.78,9.33-9.13a2.08,2.08,0,0,0-.71-.83,2.53,2.53,0,0,0,.13-2,2.1,2.1,0,0,0-.67-.82,2.68,2.68,0,0,0,.1-2,2.14,2.14,0,0,0-.65-.82,2.71,2.71,0,0,0,.07-2.05A2.2,2.2,0,0,0,222.32,194.91Z" style="fill:#263238"></path><path d="M222.32,194.91a2.75,2.75,0,0,0,0-2.07c-1.23-2.83-8.25-2.5-15.68.73s-12.45,8.15-11.22,11a2.78,2.78,0,0,0,1.54,1.38,2.25,2.25,0,0,0,.17,1,2.7,2.7,0,0,0,1.55,1.35,2.09,2.09,0,0,0,.16,1,2.64,2.64,0,0,0,1.56,1.32,2.19,2.19,0,0,0,.15,1.06,2.57,2.57,0,0,0,1.58,1.3,2,2,0,0,0,.13,1.08c1,2.35,6.86,2.08,13-.6s10.35-6.78,9.33-9.13a2.08,2.08,0,0,0-.71-.83,2.53,2.53,0,0,0,.13-2,2.1,2.1,0,0,0-.67-.82,2.68,2.68,0,0,0,.1-2,2.14,2.14,0,0,0-.65-.82,2.71,2.71,0,0,0,.07-2.05A2.2,2.2,0,0,0,222.32,194.91Z" style="fill:#fff;opacity:0.30000000000000004"></path><path d="M222.53,164.92a26,26,0,1,0-30.9,35.33,4.26,4.26,0,0,1,2.92,2.75,1.07,1.07,0,0,0,.07.19c1.25,2.88,8.38,2.55,15.93-.73s12.65-8.27,11.39-11.15a1.42,1.42,0,0,0-.08-.18,4.32,4.32,0,0,1,0-4.06A25.86,25.86,0,0,0,222.53,164.92Z" style="fill:#161C24"></path><path d="M222.53,164.92a26,26,0,1,0-30.9,35.33,4.26,4.26,0,0,1,2.92,2.75,1.07,1.07,0,0,0,.07.19c1.25,2.88,8.38,2.55,15.93-.73s12.65-8.27,11.39-11.15a1.42,1.42,0,0,0-.08-.18,4.32,4.32,0,0,1,0-4.06A25.86,25.86,0,0,0,222.53,164.92Z" style="fill:#fff;opacity:0.30000000000000004"></path><path d="M203.84,200.73a.31.31,0,0,1-.29-.19c-3.69-8.48-13.27-12-13.37-12a.31.31,0,0,1-.2-.29.3.3,0,0,1,.18-.29l4.3-1.87,0-3.79a.28.28,0,0,1,.17-.28.33.33,0,0,1,.33,0l4.87,3.81.54-6.16a.31.31,0,0,1,.19-.26.29.29,0,0,1,.32.05l5.16,4.47.24-6.82a.3.3,0,0,1,.2-.27.29.29,0,0,1,.33.06l2.75,2.6,4.29-1.87a.31.31,0,0,1,.37.1.3.3,0,0,1,0,.37c-4.36,5.95-1.06,18.17-1,18.29a.32.32,0,0,1-.22.38.3.3,0,0,1-.38-.22c-.14-.49-3.13-11.54.54-17.93l-3.53,1.54a.33.33,0,0,1-.34-.06l-2.4-2.28-.24,6.78a.32.32,0,0,1-.52.22l-5.18-4.49-.54,6.13a.3.3,0,0,1-.18.25.31.31,0,0,1-.32,0l-4.82-3.76,0,3.35a.3.3,0,0,1-.19.29l-3.8,1.65c2.33,1,9.83,4.72,13,12.08a.31.31,0,0,1-.16.41A.27.27,0,0,1,203.84,200.73Z" style="fill:#263238"></path><path d="M198.08,155.36c4.36,3.68,3.62,11.73-1.65,18S183.35,181.67,179,178s-3.62-11.73,1.65-18S193.71,151.68,198.08,155.36Z" style="fill:#fff;opacity:0.4"></path><path d="M204.22,173.27c1.75,1.47,1.45,4.71-.66,7.22s-5.25,3.34-7,1.86-1.45-4.71.66-7.22S202.47,171.79,204.22,173.27Z" style="fill:#fff;opacity:0.4"></path></g><g id="freepik--speech-bubble--inject-72"><path d="M382.32,169H353.59a8.84,8.84,0,0,0-8.84,8.85v25a8.85,8.85,0,0,0,8.84,8.85H362l0,7.89,6-7.89h14.39a8.85,8.85,0,0,0,8.85-8.85v-25A8.85,8.85,0,0,0,382.32,169Z" style="fill:#161C24"></path><path d="M382.32,169H353.59a8.84,8.84,0,0,0-8.84,8.85v25a8.85,8.85,0,0,0,8.84,8.85H362l0,7.89,6-7.89h14.39a8.85,8.85,0,0,0,8.85-8.85v-25A8.85,8.85,0,0,0,382.32,169Z" style="fill:#fff;opacity:0.7000000000000001"></path><g style="opacity:0.5"><path d="M358.28,178.63h-4.42V176h12v2.6h-4.41v11.19h-3.19Z"></path><rect x="368.43" y="176.03" width="13.62" height="1.97"></rect><rect x="353.86" y="202.15" width="28.18" height="1.97"></rect><rect x="353.86" y="196.92" width="28.18" height="1.97"></rect><rect x="353.86" y="191.7" width="28.18" height="1.97"></rect><rect x="368.43" y="186.48" width="13.62" height="1.97"></rect><rect x="368.43" y="181.26" width="13.62" height="1.97"></rect></g></g><g id="freepik--Character--inject-72"><path d="M146.31,385.24s13.56-2.84,41.2-2.84,45,2.84,45,2.84Z" style="fill:#161C24"></path><path d="M146.31,385.24s13.56-2.84,41.2-2.84,45,2.84,45,2.84Z" style="fill:#fff;opacity:0.5"></path><path d="M297.22,210.37s15.75-3.5,31,21,7.43,93.67-12.51,112.22-39.87,20.78-51.85-3.42,3.11-25.2-8.77-54.11-15.85-53,1.62-67.1S297.22,210.37,297.22,210.37Z" style="fill:#263238"></path><path d="M276.53,304.58s14,58.13,51,105.6c0,0,66.46-4.6,80.95-8.15-12.66-28.4-20.45-47.32-30.53-99.78-2.43-12.67-14.61-20.58-26.7-19.06-3.44.43-15-.58-34.92,5C301.84,292.2,276.53,304.58,276.53,304.58Z" style="fill:#161C24"></path><path d="M276.53,304.58s14,58.13,51,105.6c0,0,66.46-4.6,80.95-8.15-12.66-28.4-20.45-47.32-30.53-99.78-2.43-12.67-14.61-20.58-26.7-19.06-3.44.43-15-.58-34.92,5C301.84,292.2,276.53,304.58,276.53,304.58Z" style="fill:#fff;opacity:0.7000000000000001"></path><path d="M414.13,410l-30.5,2s-1.61-2.3-4.18-6.06c-3.61-5.32-9.11-13.59-14.58-22.46a256.36,256.36,0,0,1-14.39-26l-.15-.33c-15.84-35.06-11.07-68.44-10.24-73.38.07-.42.11-.63.11-.63l14.31-1.43c10.57-1.06,21.48,7.2,24,18.18l12.61,54.27,2.81,12.1,2,4.34Z" style="fill:#161C24"></path><path d="M329.36,410.05a35.1,35.1,0,0,1-.54,4.43l-13.1-2.31c.49-5.1,1-9,1-9s-2.68-5.1-6.65-13c-3.37-6.71-7.68-15.45-12.07-24.82-11.2-23.85-23-51.78-21.45-60.8.57-3.39,26.38-11.92,26.38-11.92l0,.19c.44,2.83,5.86,37,15.07,60.48,1.11,2.82,2.17,5.82,3.18,8.93a190.12,190.12,0,0,1,6.67,27.11A95.75,95.75,0,0,1,329.36,410.05Z" style="fill:#161C24"></path><path d="M213.47,364l-16.56-6.27,1.89,20.63s12,.86,19-8.2Z" style="fill:#ffc3bd"></path><polygon points="180.32 363.07 184.58 378.12 198.8 378.34 196.91 357.71 180.32 363.07" style="fill:#ffc3bd"></polygon><path d="M280,301.63c-14.06,6.56-33,59.57-37.5,60.36-5.06.9-30.36-.79-30.36-.79l-4.22,17.15s27.73,5.82,39,5.82,28.94-28.47,41.85-47.46Z" style="fill:#161C24"></path><path d="M211.45,341.51l-23.53,39.2-4.73-2.84,23.53-39.2a2.76,2.76,0,0,1,3.78-.95,2.79,2.79,0,0,1,.95,3.79Z" style="fill:#263238"></path><polygon points="183.19 377.88 181.98 385.24 187.91 380.71 183.19 377.88" style="fill:#161C24"></polygon><polygon points="187.92 380.71 184.02 383.69 181.98 385.24 182.4 382.71 183.19 377.87 187.92 380.71" style="fill:#fff;opacity:0.7000000000000001"></polygon><polygon points="184.02 383.69 181.98 385.24 182.4 382.71 184.02 383.69" style="fill:#263238"></polygon><rect x="174.76" y="357.46" width="44.49" height="5.51" transform="translate(-213.24 343.74) rotate(-59.03)" style="fill:#fff;opacity:0.2"></rect><rect x="174.76" y="358.61" width="44.49" height="3.21" transform="translate(-213.24 343.74) rotate(-59.03)" style="fill:#fff;opacity:0.2"></rect><path d="M396,370.57l-.38.25c-4.82,3.14-14.52,8.36-30.71,12.6a210.55,210.55,0,0,1-37,5.95c-4.52.35-9.3.61-14.34.75-1.14,0-2.3.06-3.47.08-3.37-6.71-7.68-15.45-12.07-24.82l1.58-.2c5.16-.62,12.91-1.62,21.63-2.92,9.28-1.39,19.66-3.13,29.14-5.14,5.2-1.1,10.13-2.29,14.47-3.55,0,0-4.22-29.82-2.9-39.05.86-6,16.42,18.4,27.2,36.22v0c.71,1.15,1.38,2.29,2,3.37l2.81,12.1Z" style="isolation:isolate;opacity:0.2"></path><path d="M313.69,374.31,297.13,368,299,388.67s12,.86,19-8.2Z" style="fill:#ffc3bd"></path><polygon points="280.54 373.39 284.8 388.45 299.02 388.67 297.13 368.04 280.54 373.39" style="fill:#ffc3bd"></polygon><path d="M358.07,281.67c-9,7.84,10.42,71,10.42,73.93S308.85,371,308.85,371l2,16.45s72.42-8,80.68-12.55-4.32-53.84-10.16-73.22C374.73,279.6,358.07,281.67,358.07,281.67Z" style="fill:#161C24"></path><path d="M317.59,340.6a.51.51,0,0,1-.38-.18c-.19-.23-19.06-23.35-8.82-50a.5.5,0,0,1,.64-.29.5.5,0,0,1,.29.65c-9.17,23.87,5.51,44.86,8.24,48.46,18-27.94,17.66-54.76,17.65-55a.5.5,0,0,1,.49-.51.47.47,0,0,1,.51.49c0,.27.33,27.77-18.2,56.18a.5.5,0,0,1-.39.23Z" style="fill:#263238"></path><path d="M303,289.08c4,4,5.59,7.14,6.1,9.42.77,3.34-.79,4.91-.79,4.91,2.32,8.19,13.4,6.12,13.4,6.12,12-14.9,10.49-24.7,10.49-24.7-8,.09-13.6-4.78-17.3-9.85a42.41,42.41,0,0,1-5.7-11.12L295.7,282.75A66.93,66.93,0,0,1,303,289.08Z" style="fill:#eec1bb"></path><path d="M295.7,282.75a66.93,66.93,0,0,1,7.31,6.33c4,4,5.59,7.14,6.1,9.42,5.85-7.45,6.65-16.24,5.8-23.52a42.41,42.41,0,0,1-5.7-11.12Z" style="isolation:isolate;opacity:0.2"></path><path d="M307.83,234.07c6.42,18.9,9.52,26.75,4.39,40.45-7.73,20.6-31.57,25.44-43.32,9.09-10.57-14.71-19.29-43.16-4.85-58.74C278.27,209.53,301.41,215.16,307.83,234.07Z" style="fill:#eec1bb"></path><path d="M286.17,230c16.29,6.86,4.8,31.78,23.72,20.05s-4.36-34.66-19.37-34.4S286.17,230,286.17,230Z" style="fill:#263238"></path><path d="M290.58,215.89c4.14,13,4,17.11-8.19,19.79.81-4.39-2.53-9-2.53-9s1,5.8-2.19,9.68a48.12,48.12,0,0,0-10.15,2.22,12.79,12.79,0,0,0-2.33-5.32,12.34,12.34,0,0,1-1.23,7,34,34,0,0,0-8.43,6.92C248.66,234.79,262,209.82,290.58,215.89Z" style="fill:#263238"></path><path d="M282.35,252.17c.6,1.57.31,3.2-.65,3.65s-2.24-.44-2.85-2-.31-3.2.65-3.66S281.74,250.61,282.35,252.17Z" style="fill:#263238"></path><path d="M264.3,261c.61,1.56.32,3.2-.65,3.65s-2.23-.44-2.84-2-.32-3.2.64-3.65S263.69,259.42,264.3,261Z" style="fill:#263238"></path><path d="M261.91,258.86l-4,.58S260.91,261.52,261.91,258.86Z" style="fill:#263238"></path><path d="M270.36,261.17s.11,7.91-1.39,12.45c2.7,1,5.67-1.43,5.67-1.43Z" style="fill:#d4827d"></path><path d="M285.37,274a15.51,15.51,0,0,1-2.38,1.39.46.46,0,0,1-.62-.25.54.54,0,0,1,.26-.67,13.93,13.93,0,0,0,7.65-9.32.47.47,0,1,1,.92.16A14.64,14.64,0,0,1,285.37,274Z" style="fill:#263238"></path><path d="M318.78,249.62a13.73,13.73,0,0,1-3.69,10.46c-3.38,3.3-7.68-.29-8.92-5.59-1.12-4.77-.7-12.24,3.74-13.44S318.52,244.48,318.78,249.62Z" style="fill:#eec1bb"></path><path d="M282.84,241.65a.87.87,0,0,1-.74.08,7.2,7.2,0,0,0-6.73,1,.88.88,0,0,1-1.31-.14,1.05,1.05,0,0,1,.16-1.41,9,9,0,0,1,8.5-1.36,1,1,0,0,1,.58,1.26A1,1,0,0,1,282.84,241.65Z" style="fill:#263238"></path><path d="M255.69,254.88a.84.84,0,0,1-.69.14,1,1,0,0,1-.7-1.17,10.28,10.28,0,0,1,5.42-7.3.9.9,0,0,1,1.21.55,1.07,1.07,0,0,1-.57,1.31,8.17,8.17,0,0,0-4.23,5.82A1,1,0,0,1,255.69,254.88Z" style="fill:#263238"></path><path d="M280,250.05l-4,.58S279,252.71,280,250.05Z" style="fill:#263238"></path><path d="M317.45,339.25s4.91,6.66,0,6.66S317.45,339.25,317.45,339.25Z" style="fill:#263238"></path><path d="M317.45,341.55s2.63,3.83,0,3.83S317.45,341.55,317.45,341.55Z" style="fill:#161C24"></path><rect x="70.65" y="392.63" width="360.17" height="23.28" style="fill:#263238"></rect><rect x="70.65" y="392.63" width="360.17" height="23.28" style="fill:#fff;opacity:0.30000000000000004"></rect><rect x="65.59" y="384.87" width="370.28" height="15.52" rx="3.71" style="fill:#263238"></rect><rect x="65.59" y="384.87" width="370.28" height="15.52" rx="3.71" style="fill:#fff;opacity:0.4"></rect><path d="M118.54,377.88h44.39s7,5.36,25.86,7.36H138.4S123.09,383.94,118.54,377.88Z" style="fill:#161C24"></path><path d="M118.54,377.88h44.39s7,5.36,25.86,7.36H138.4S123.09,383.94,118.54,377.88Z" style="fill:#fff;opacity:0.7000000000000001"></path></g></svg>